<?xml version="1.0" standalone="no"?>
<!DOCTYPE svg PUBLIC "-//W3C//DTD SVG 1.1//EN" "http://www.w3.org/Graphics/SVG/1.1/DTD/svg11.dtd" >
<svg xmlns="http://www.w3.org/2000/svg">
<metadata>
Created by FontPrep 20130207 at Thu Jan 14 12:38:44 2016
 By Dave Bonds
copyright missing
</metadata>
<defs>
<font id="89c183c9a23464ebe1b4fb58e15e4e3e" horiz-adv-x='1024' >
  <font-face 
    font-family="RealEstateIcons-Regular"
    font-weight="400"
    font-stretch="normal"
    units-per-em="2048"
    panose-1="0 0 5 0 0 0 0 0 0 0"
    ascent="1638"
    descent="-410"
    bbox="-36 -2 1256 1440"
    underline-thickness="100"
    underline-position="-100"
    unicode-range="U+E001-E021"
  />
<missing-glyph horiz-adv-x="1000" 
d="M100 1210v-1020l340 510zM160 100h680l-340 510zM560 700l340 -510v1020zM500 790l340 510h-680zM0 0v1400h1000v-1400h-1000z" />
    <glyph glyph-name=".notdef" horiz-adv-x="1000" 
d="M100 1210v-1020l340 510zM160 100h680l-340 510zM560 700l340 -510v1020zM500 790l340 510h-680zM0 0v1400h1000v-1400h-1000z" />
    <glyph glyph-name=".null" horiz-adv-x="0" 
 />
    <glyph glyph-name="nonmarkingreturn" horiz-adv-x="682" 
 />
    <glyph glyph-name="uniE001" unicode="&#xe001;" 
d="M240 120h-240v280l68 16q68 18 218 35t287 17q383 0 603 -60l24 -6v-282h-240v120h-720v-120zM822 670q-74 0 -132 -34t-90 -88q-74 122 -206 122q-82 0 -147 -50t-87 -128l-100 -20v488h1080v-488l-100 20q-24 78 -84 128t-134 50z" />
    <glyph glyph-name="uniE002" unicode="&#xe002;" 
d="M786 440v-246h174v246h-174zM240 440v-246h176v246h-176zM786 840v-236h174v236h-174zM512 840v-236h174v236h-174zM240 840v-236h176v236h-176zM786 1240v-240h174v240h-174zM512 1240v-240h174v240h-174zM240 1240v-240h176v240h-176zM210 1440h784q36 0 61 -28t25 -64
v-1260q0 -38 -24 -63t-62 -25h-308v440h-174v-440h-304q-38 0 -63 25t-25 63v1260q0 36 27 64t63 28z" />
    <glyph glyph-name="uniE003" unicode="&#xe003;" 
d="M1200 810q0 -126 -91 -206t-221 -80h-30l-198 -464v464h-374q-112 0 -199 81t-87 205v252q0 130 93 224t223 94h568q128 0 222 -94t94 -224v-252z" />
    <glyph glyph-name="uniE004" unicode="&#xe004;" 
d="M354 496l142 -140l-352 -354l-142 142zM800 500q124 0 211 88t87 212t-87 211t-211 87t-212 -87t-88 -211t88 -212t212 -88zM398 800q0 166 117 282t283 116t283 -116t117 -282t-117 -283t-283 -117q-128 0 -226 68l-92 -96l-110 108l100 94q-72 104 -72 226z" />
    <glyph glyph-name="uniE005" unicode="&#xe005;" 
d="M980 1080v-340l220 -260h-240v-480h-240v360h-240v-360h-240v480h-240l620 600l120 -128v128h240z" />
    <glyph glyph-name="uniE006" unicode="&#xe006;" 
d="M762 1190h-88v-80l-68 76l-284 -266h98v-280h134v196h96v-196h138v280h92l-118 116v154zM1050 962q0 -78 -45 -206t-144 -324t-205 -360l-44 -72q-275 427 -394 753q-48 131 -48 209q0 182 123 309t318 127t317 -127t122 -309z" />
    <glyph glyph-name="uniE007" unicode="&#xe007;" 
d="M596 60q44 0 44 45t-44 45q-30 0 -42 -22t0 -45t42 -23zM938 1240h-676v-1000h676v1000zM599 1348q-87 0 -87 -22t87 -22t87 22t-87 22zM274 1440h648q40 0 69 -27t29 -65v-1256q0 -34 -29 -63t-69 -29h-648q-40 0 -67 29t-27 63v1256q0 38 26 65t68 27z" />
    <glyph glyph-name="uniE008" unicode="&#xe008;" 
d="M284 874q0 30 -18 50q-22 20 -52 20t-50 -20t-20 -50t20 -50t50 -20t52 20q18 20 18 50zM1200 22q0 -22 -73 -22t-81 8l-26 24l-6 54l-28 26l-60 4l-56 50v76l-34 28l-66 -12l-62 52l-8 8q-2 5 2 21q4 17 4 26t-24 33l-44 -26l-36 8q-6 -13 -18 -23q-12 -11 -19 -11
t-19 16t-18 40t-32 44q-96 -52 -207 -35t-189 97q-100 100 -100 242t100 242t241 100t241 -100q66 -66 89 -155t1 -179q0 -24 16 -38q24 -32 54 -36t30 -6t-12 -18t-16 -18q110 -98 330 -290l110 -96l16 -130v-4z" />
    <glyph glyph-name="uniE009" unicode="&#xe009;" 
d="M998 974l24 -154q4 -22 -18 -26l-24 -4q-24 -4 -28 16l-6 54l-270 -416q-12 -20 -32 -6l-194 170q-14 10 -24 -4l-212 -264q-18 -22 -34 -8l-20 16q-18 14 -2 34l250 320q20 16 34 4l190 -162q14 -18 30 2l220 346l-50 -14q-24 -6 -28 14l-10 24q-6 16 18 26l160 46
q22 8 26 -14zM60 120h1140v-60h-1200v1080h60v-1020z" />
    <glyph glyph-name="uniE010" unicode="&#xe010;" 
d="M1126 240h-1070l412 334l120 -100l120 100zM0 278v644l402 -302zM1200 926v-648l-418 342zM82 960h1036l-530 -378z" />
    <glyph glyph-name="uniE011" unicode="&#xe011;" 
d="M600 160h-120v160h120v-160zM0 360v480h960v-428l210 268h30l-240 -320h-960zM480 1120h240v-240h-80v140h-160v100z" />
    <glyph glyph-name="uniE012" unicode="&#xe012;" 
d="M858 442l92 74l250 -296l-90 -80zM736 382q32 0 64 16l256 -298l-66 -50q-14 -14 -47 -26q-112 -41 -259 54q-88 64 -181 149t-143 139l-48 54q-168 204 -274 426q-44 108 -38 176t36 98l28 32l54 48l258 -296q-16 -16 -26 -54t-7 -76t31 -99t82 -127h2
q112 -136 206 -157q40 -9 72 -9zM182 1244l90 80l252 -296l-88 -78z" />
    <glyph glyph-name="uniE013" unicode="&#xe013;" 
d="M1188 590q0 -214 -146 -386q-84 -94 -201 -150t-247 -56q-244 0 -419 172t-175 416t175 416t419 172v-572l520 262q74 -136 74 -274zM676 740v598q172 -2 310 -95t214 -245z" />
    <glyph glyph-name="uniE014" unicode="&#xe014;" 
d="M600 778q88 0 152 62t64 149t-64 150t-152 63t-151 -62t-63 -150t63 -150t151 -62zM1032 962q0 -120 -108 -358t-216 -416l-108 -178q-263 410 -385 746q-47 130 -47 206q0 178 120 305t312 127t312 -127t120 -305z" />
    <glyph glyph-name="uniE015" unicode="&#xe015;" 
d="M526 300v-122h148v122h-148zM526 400h144q-2 30 8 72t68 84q152 116 152 226t-89 177t-220 67t-206 -69t-83 -195h148q30 140 152 140q66 0 106 -30t40 -75t-17 -70t-87 -78t-96 -107q-20 -34 -20 -142zM597 1204q247 0 425 -179t178 -425t-177 -419t-426 -173t-423 173
t-174 419t175 425t422 179z" />
    <glyph glyph-name="uniE016" unicode="&#xe016;" 
d="M532 32l-18 36q-26 50 3 65t55 -33l22 -48q18 -38 -11 -50t-51 30zM828 141q0 -19 -12 -27t-29 -1t-27 25l-26 48q-28 50 0 64t54 -26l28 -46q12 -18 12 -37zM426 236l-22 52q-20 46 11 61t51 -31l20 -48q22 -54 -8 -66q-12 -6 -28 3t-24 29zM974 314l-36 36
q-34 36 -14 62q22 26 58 -12l36 -36q38 -32 16 -62q-24 -24 -60 12zM622 338l-26 44q-32 44 -3 64t57 -24l26 -42q28 -50 1 -67t-55 25zM318 456l-12 26q-24 48 6 66q12 8 27 -2t25 -30l16 -30q22 -46 -8 -62q-14 -8 -30 2t-24 30zM792 474l-36 36q-36 36 -16 62q6 12 25 10
t35 -18l38 -36q36 -48 14 -66q-18 -22 -60 12zM1134 510l-44 34q-44 34 -27 62t63 -2l44 -34q42 -30 24 -58t-60 -2zM484 538l-16 28q-30 46 0 63t54 -23l16 -28q32 -46 1 -64t-55 24zM610 636l-22 20q-38 38 -16 62q24 24 58 -6l26 -26q32 -36 12 -62t-58 12zM930 648
l-42 32q-42 32 -24 58q8 12 27 11t35 -15l38 -30q44 -36 27 -62t-61 6zM762 766q-18 0 -36 14l-22 20q-18 12 -27 30t-1 30t27 11t35 -13l26 -20q40 -32 24 -62q-8 -10 -26 -10zM686 1028l56 -58l-548 -472l-52 64zM608 1030l-450 -388q-4 24 -6 64t23 130t85 144
q64 52 151 64t141 0zM0 1226h170l140 -146q-126 -41 -168 -168l-142 142v172z" />
    <glyph glyph-name="uniE017" unicode="&#xe017;" 
d="M1140 786l-40 40l-278 -276q14 -69 -3 -146q-17 -78 -61 -110l-198 194l-406 -404l-148 -80l78 152l406 402l-196 198q32 44 96 61t112 11l48 -4l276 274l-38 38l72 70l348 -350z" />
    <glyph glyph-name="uniE018" unicode="&#xe018;" 
d="M0 0v40h56v320h196v-320h92v560h212v-560h92v920h206v-920h90v680h208v-680h48v-40h-1200z" />
    <glyph glyph-name="uniE019" unicode="&#xe019;" 
d="M362 136q0 20 -48 16v-34q48 -2 48 18zM264 135q0 21 -48 17v-34q48 -4 48 17zM522 154v-34h32q22 0 22 17t-22 17h-32zM406 115q0 -41 35 -41t35 41t-35 41t-35 -41zM100 115q0 -41 35 -41t35 41t-35 41t-35 -41zM1082 62h-14v44l-40 60h18l30 -44l30 44h16l-40 -60v-44
zM1026 166v-14h-36v-90h-14v90h-34v14h84zM912 62v104h14v-104h-14zM888 62h-16l-56 82v-82h-12v104h14l54 -82v82h16v-104zM768 166h14v-60q0 -46 -41 -46t-41 46v60h14v-60q0 -32 27 -32t27 32v60zM684 166v-14h-32v-90h-14v90h-34v14h80zM522 108v-46h-14v104h46
q38 0 38 -28t-28 -28q8 -2 20 -20l16 -28h-16l-14 22q-14 24 -24 24h-24zM314 62h-16v104h42l10 -2q10 0 19 -7t9 -21q0 -32 -64 -32v-42zM216 62h-16v104h40l10 -2q10 0 20 -8t10 -20q0 -32 -64 -32v-42zM392 114q0 54 49 54t49 -54t-49 -54t-49 54zM84 113q0 23 15 39
t35 16q50 0 50 -54q0 -26 -15 -40t-35 -14t-35 15t-15 38zM644 252q0 -12 9 -24t23 -12q32 0 32 37t-32 37t-32 -38zM408 244l-18 46l-16 -46h34zM240 252q0 14 -10 26t-24 12t-23 -11t-9 -25t10 -26t21 -12t15 2q-8 4 -12 4l2 10q14 -4 18 -10q12 16 12 30zM1018 206h-14
l-46 72v-72h-12v92h12l46 -72v72h14v-92zM912 206v92h12v-92h-12zM794 298h12v-54q0 -38 -36 -38t-36 38v54h14v-54q0 -28 23 -28t23 28v54zM604 206v44h-48v-44h-12v92h12v-38h48v38h10v-92h-10zM454 298v-82h44v-10h-54v92h10zM420 206l-10 28h-38l-10 -28h-12l34 92h12
l40 -92h-16zM326 298h12v-54q0 -38 -36 -38q-20 0 -27 7t-7 31v54h12v-54q0 -26 23 -26t23 26v54zM98 248v-32h54v-10h-68v92h64v-12h-50v-26h48v-12h-48zM1080 204q-44 0 -44 48t44 48q38 0 38 -32h-12q0 22 -26 22q-32 0 -32 -37t32 -37l26 8v18h-28v10h40v-32
q-16 -16 -38 -16zM862 216q22 0 22 16q0 8 -30 17t-30 25q0 26 32 26h8q28 -6 28 -30h-12q0 18 -21 18t-21 -13t20 -16t29 -8t9 -19q0 -26 -37 -26t-37 30l10 2q0 -6 10 -14t20 -8zM632 252q0 48 43 48t43 -47t-42 -47q-20 0 -32 14t-12 32zM162 252q0 48 44 48t44 -48
q0 -19 -12 -36q4 -4 16 -8l-6 -10l-18 12q-6 -4 -28 -4t-31 17t-9 29zM804 608h-408v120h408v-120zM804 792h-408v120h408v-120zM208 496h784v412l-392 252l-392 -252v-412zM1120 350h-1042v472h-78v148l596 410l604 -410v-148h-80v-472z" />
    <glyph glyph-name="uniE020" unicode="&#xe020;" 
d="M822 100q0 -76 70 -76q32 0 53 20t21 53t-22 55t-52 22t-50 -22t-20 -52zM450 84l-36 90l-38 -90h74zM1050 190h44q66 0 72 -56q2 -20 -12 -35t-34 -21l46 -72h-22l-56 88q56 0 56 40t-56 40h-24v-168h-14v184zM668 174v16h90v-16h-36v-168h-18v168h-36zM568 190v-168h64
v-16h-82v184h18zM426 190l68 -184h-20l-20 56h-82l-20 -56h-20l70 184h24zM206 90v-66h76v-18h-98v184h98v-18h-76v-64h76v-18h-76zM0 190h52q66 0 66 -56q0 -46 -46 -56l46 -72h-20l-54 88q56 0 56 40t-52 40h-30v-168h-18v184zM800 100q0 40 26 67t66 27t68 -27t28 -68
t-29 -70t-67 -29t-65 30t-27 70zM1174 222q6 0 6 3t-6 3v-6zM1174 218v-8h-4v22h4q12 0 12 -4t-4 -8l6 -10h-6l-4 8h-4zM1178 236q-16 0 -16 -15t16 -15t16 15t-16 15zM1178 242q22 0 22 -21t-22 -21t-22 21t22 21zM480 1200v-880h-320v880h320zM600 320v434l420 -434h-420z
M600 754v446h118q92 0 167 -71t74 -154t-75 -147t-166 -74h-118z" />
    <glyph glyph-name="uniE021" unicode="&#xe021;" 
d="M486 388q46 0 90 5t52 48q4 21 4 77t-20 90q-16 12 -33 15t-93 3h-202v-238h202zM140 266v480h408l222 -234q0 96 -12 144q-24 66 -96 80q-36 10 -58 10h140l148 -168l150 168h202l-232 -238l244 -242h-206l-158 174l-156 -174h-136q38 4 64 12q68 14 92 76q14 70 14 150
l-242 -238h-388zM-36 266v480h154v-480h-154z" />
  </font>
</defs>
</svg>
